<?xml version="1.0" encoding="UTF-8"?><svg id="Layer_1" xmlns="http://www.w3.org/2000/svg" viewBox="0 0 179.51 172.9"><defs><style>.cls-1{fill:#6bb4d5;}.cls-1,.cls-2{fill-rule:evenodd;}.cls-2{fill:#30496a;}</style></defs><path class="cls-1" d="M90.31,171.72c-4.74.4-22.91.78-30.95-8.01,0,0,9.99,3.12,9.99-1.05,0-8.26-16.5-9.38-22.83-8.52,18.19-5.1,25.35-2.02,34.3,7.79,3.16,3.47,5.8,7.56,9.5,9.79h0ZM143.9,130.05c4.65-.3,16.2-6.61,18.92-10.36l-11.8-2.82c-.29,2.19-1.96,9.66-7.12,13.18h0ZM45.34,162.27c-.53,2.72,2.04,8.52,5.73,10.63-1.58-3.69,2.33-7.83,5.12-10.08l-10.85-.55h0ZM62.67,129.49s38.47-22.59,48.57-23.13c3.44-.19-4.41,11.08-9.29,18.02-8.42,11.96-14.02,8.87-29.88,7.09,16.32-2.22,20.16-1.79,26.93-11.52,2.71-3.9,3.22-4.86-2.15-3.29-10.7,3.12-26.65,11.84-34.18,12.84h0Z"/><path class="cls-2" d="M26.79,150.72c11.6,1.61,16.42-10.35,11.48-15.5,9.42,1.16,22.8,7.14,28.29,14.32-5.98-2.07-11.23-1.73-16.04-.71.89-4.18-1.44-7.77-1.73-8.05.2,3.54.47,6.21-.74,8.65-1.77.46-3.47.97-5.14,1.44,4.07-5.32.92-11.17.53-11.56.37,6.65-1.42,10.27-5.62,12.8-3.73.67-7.34.6-11.03-1.39h0Z"/><path class="cls-2" d="M7.14,131.51c19.84-1.44,43.32.91,60.17,12.87,18.75,13.3,25.93,10.35,31.47-13.46-4.61,7.48-15.8,4.22-28.31,2.1-7.81-1.32-33.63-8.03-63.32-1.51h0Z"/><path class="cls-2" d="M83.22,161.09s20.28,7.23,40.24-7.07c19.96-14.31,20.59-23.89,20.59-23.89,0,0-6.6,12.57-20.9,13.68-14.31,1.1-14.93-10.85-11.32-12.73,3.61-1.89,7.86,1.1,7.86,1.1,0,0-2.2-7.39-11.63-5.03-9.43,2.36-6.12,18.96-10.06,27.35-3.94,8.39-14.78,6.6-14.78,6.6h0Z"/><path class="cls-2" d="M114.06,136.29c8.57,10.55,26.63-2.68,32.24-12.29,19.29-32.99-35.96-50.07-26.04-81.93-21.99,32.64,22.74,49.57,21.5,68.74-.26,3.99-3.88,7.68-12.29,5.69,10.47-.19,7.37-16.67,2.15-22.59,1.19,8.04-3.67,20.31-9.12,25.33,5.02,3.78,13.65,3.64,19.44.96-5.09,9.43-15.15,3.93-22.14,1.47-2.21,1.54-4.76,2.66-7.78,3.21,16.04.81,16.59,15.52,2.04,11.4h0Z"/><path class="cls-2" d="M148.91,71.2C114.18,59.42,103.07,20.03,179.51,0c-21.39,12.87-38.02,30.43-39.82,46.46l-10.3.4c3.25,1.93,6.49,3.13,10.86,4.25-1.26,3.64,3.98,17.14,8.66,20.09h0Z"/><path class="cls-2" d="M20.01,136.92c7.05-.05,14.59,2.46,13.24,3.58-1.35,1.12-9.95-.75-12.54-.21,3.65.68,6.2,2.96,11.6,3.65,1.86.24,3.18-.67,3.63-2.05,2.13-6.54-10.91-7.65-15.28-8.07-4.1-.39-20.03-.89-20.64,4.03-.62,5,22.87,10.42,27.87,10.32-12.93-2.78-24.02-11.13-7.87-11.25h0ZM48.11,161.48c8.81.83,16.65.28,17.35,1.15-2.33-5.47-10.08-6.24-17.29-6.34-8.03-.1-19.05-.4-27.19-4.48,4.65-1.12,6.94-3.04,6.94-3.04-4.96,1.54-13.95.3-17.03-.55,8.54,7.37,25.91,12.19,37.23,13.25h0Z"/></svg>